<svg aria-hidden="true" style="position: absolute; width: 0; height: 0; overflow: hidden;" version="1.1" xmlns="http://www.w3.org/2000/svg" xmlns:xlink="http://www.w3.org/1999/xlink">
<defs>
<symbol id="icon-envelope" viewBox="0 0 32 32">
<path d="M26.667 5.333h-21.333c-1.471 0-2.667 1.196-2.667 2.667v16c0 1.471 1.196 2.667 2.667 2.667h21.333c1.471 0 2.667-1.196 2.667-2.667v-16c0-1.471-1.196-2.667-2.667-2.667zM26.667 8v0.681l-10.667 8.297-10.667-8.296v-0.683zM5.333 24v-11.941l9.848 7.66c0.223 0.176 0.508 0.283 0.819 0.283s0.596-0.107 0.821-0.285l-0.003 0.002 9.848-7.66 0.003 11.941z"></path>
</symbol>
<symbol id="icon-euro" viewBox="0 0 32 32">
<path d="M17.952 8c1.907 0 3.705 0.817 5.065 2.301l1.967-1.803c-1.872-2.041-4.369-3.165-7.032-3.165-2.664 0-5.16 1.124-7.029 3.167-0.903 0.983-1.628 2.146-2.113 3.427l-0.024 0.073h-3.452v2.667h2.819c-0.050 0.396-0.081 0.859-0.085 1.328l-0 0.005c0 0.449 0.035 0.893 0.085 1.333h-2.819v2.667h3.452c0.483 1.293 1.201 2.481 2.137 3.501 1.869 2.041 4.365 3.165 7.029 3.165 2.663 0 5.16-1.124 7.031-3.165l-1.967-1.803c-1.359 1.484-3.157 2.301-5.064 2.301s-3.704-0.816-5.064-2.301c-0.439-0.493-0.823-1.051-1.132-1.654l-0.021-0.045h5.599v-2.667h-6.481c-0.070-0.397-0.112-0.858-0.119-1.327l-0-0.006c0-0.453 0.052-0.896 0.119-1.333h6.481v-2.667h-5.599c0.32-0.609 0.688-1.191 1.153-1.699 1.36-1.484 3.157-2.301 5.064-2.301z"></path>
</symbol>
<symbol id="icon-Google" viewBox="0 0 32 32">
<path d="M28 15.72c0 5.533-2.947 12.28-11.827 12.28-0.024 0-0.052 0-0.080 0-6.646 0-12.040-5.361-12.093-11.995l-0-0.005c0.053-6.639 5.447-12 12.093-12 0.028 0 0.056 0 0.085 0l-0.004-0c2.885 0.011 5.534 1.014 7.625 2.686l-0.025-0.019c0.145 0.119 0.24 0.294 0.253 0.491l0 0.002c0 0.001 0 0.002 0 0.003 0 0.202-0.081 0.385-0.213 0.517l0-0c-0.874 0.8-1.684 1.618-2.451 2.474l-0.029 0.033c-0.12 0.132-0.292 0.214-0.484 0.214-0.15 0-0.288-0.050-0.398-0.135l0.002 0.001c-1.116-0.835-2.524-1.337-4.049-1.337-0.077 0-0.153 0.001-0.229 0.004l0.011-0c-3.94 0-7.133 3.194-7.133 7.133s3.194 7.133 7.133 7.133v0c4 0 5.693-1.707 6.573-4.733h-6.093c-0.368 0-0.667-0.298-0.667-0.667v0-3.533c0-0.368 0.298-0.667 0.667-0.667v0h10.667c0.001 0 0.002 0 0.004 0 0.308 0 0.562 0.232 0.596 0.531l0 0.003q0.075 0.792 0.067 1.587z"></path>
</symbol>
<symbol id="icon-heart" viewBox="0 0 32 32">
<path d="M16 6.127c-1.397-1.289-3.27-2.079-5.328-2.079-1.098 0-2.144 0.225-3.094 0.632l0.051-0.020c-1.002 0.423-1.857 1.009-2.573 1.733l-0.001 0.001c-3.139 3.151-3.137 8.080 0.001 11.216l9.777 9.776c0.234 0.397 0.66 0.66 1.147 0.66 0.224 0 0.435-0.056 0.62-0.154l-0.007 0.003c0.186-0.098 0.341-0.233 0.46-0.395l0.003-0.004 9.887-9.887c3.139-3.139 3.139-8.065-0.003-11.221-1.434-1.443-3.419-2.337-5.613-2.339h-0c-1.973 0-3.875 0.741-5.327 2.077zM25.056 8.273c2.085 2.095 2.085 5.367 0.004 7.451l-9.060 9.057-9.059-9.057c-2.083-2.084-2.080-5.356-0.003-7.445 0.953-0.963 2.273-1.56 3.733-1.563h0.001c1.392 0 2.712 0.555 3.717 1.56l0.667 0.667c0.241 0.242 0.575 0.391 0.943 0.391s0.702-0.149 0.943-0.391v0l0.667-0.667c2.015-2.012 5.432-2.007 7.444-0.003z"></path>
</symbol>
<symbol id="icon-Instagram" viewBox="0 0 32 32">
<path d="M21.333 4.324h-10.667c-3.682 0-6.667 2.985-6.667 6.667v0 10.667c0 3.682 2.985 6.667 6.667 6.667v0h10.667c3.682 0 6.667-2.985 6.667-6.667v0-10.667c0-3.682-2.985-6.667-6.667-6.667v0zM25.667 21.657c-0.008 2.39-1.943 4.326-4.333 4.333h-10.667c-2.39-0.008-4.326-1.943-4.333-4.333v-10.667c0.008-2.39 1.943-4.326 4.333-4.333h10.667c2.39 0.008 4.326 1.943 4.333 4.333v0.001zM22.333 11.324c0.736 0 1.333-0.597 1.333-1.333s-0.597-1.333-1.333-1.333v0c-0.736 0-1.333 0.597-1.333 1.333s0.597 1.333 1.333 1.333v0zM16 10.324c-3.314 0-6 2.686-6 6s2.686 6 6 6c3.314 0 6-2.686 6-6v0c0-0.004 0-0.009 0-0.013 0-3.306-2.68-5.987-5.987-5.987-0.005 0-0.009 0-0.014 0h0.001zM12.333 16.324c0 2.025 1.642 3.667 3.667 3.667s3.667-1.642 3.667-3.667v0c0-2.025-1.642-3.667-3.667-3.667s-3.667 1.642-3.667 3.667v0z"></path>
</symbol>
<symbol id="icon-phone" viewBox="0 0 32 32">
<path d="M23.609 16.391c-0.241-0.241-0.575-0.39-0.943-0.39s-0.701 0.149-0.943 0.39l-2.124 2.125c-0.985-0.293-2.824-0.96-3.989-2.125s-1.832-3.004-2.125-3.989l2.125-2.125c0.241-0.241 0.39-0.575 0.39-0.943s-0.149-0.701-0.39-0.943l-5.333-5.333c-0.241-0.241-0.575-0.39-0.943-0.39s-0.701 0.149-0.943 0.39l-3.617 3.616c-0.507 0.507-0.792 1.203-0.781 1.913 0.031 1.899 0.533 8.493 5.731 13.691s11.792 5.699 13.693 5.731h0.036c0.704 0 1.369-0.277 1.873-0.781l3.616-3.616c0.241-0.241 0.39-0.575 0.39-0.943s-0.149-0.701-0.39-0.943v0zM23.44 25.34c-1.664-0.028-7.357-0.475-11.831-4.949-4.488-4.488-4.923-10.201-4.949-11.832l2.673-2.673 3.448 3.448-1.724 1.724c-0.242 0.241-0.391 0.575-0.391 0.943 0 0.097 0.010 0.191 0.030 0.282l-0.002-0.009c0.032 0.153 0.815 3.789 3.028 6.003s5.849 2.996 6.003 3.028c0.082 0.018 0.177 0.028 0.274 0.028 0.368 0 0.701-0.149 0.942-0.39l1.725-1.724 3.448 3.448z"></path>
</symbol>
<symbol id="icon-right-arrow-alt" viewBox="0 0 32 32">
<path d="M15.057 23.057l1.885 1.885 8.943-8.943-8.943-8.943-1.885 1.885 5.724 5.724h-12.781v2.667h12.781z" fill="currentColor"></path>
</symbol>
<symbol id="icon-store-alt" viewBox="0 0 32 32">
<path d="M29.333 6.667c0-2.205-1.795-4-4-4h-18.667c-2.205 0-4 1.795-4 4v3.775c0 1.404 0.509 2.68 1.333 3.661v11.231c0 1.471 1.196 2.667 2.667 2.667h18.667c1.471 0 2.667-1.196 2.667-2.667v-11.232c0.824-0.98 1.333-2.256 1.333-3.661zM26.667 6.667v3.775c0 1.52-1.132 2.816-2.521 2.889l-0.145 0.003c-1.471 0-2.667-1.196-2.667-2.667v-5.333h4c0.736 0 1.333 0.599 1.333 1.333zM13.333 5.333h5.333v5.333c0 1.471-1.196 2.667-2.667 2.667s-2.667-1.196-2.667-2.667zM5.333 6.667c0-0.735 0.597-1.333 1.333-1.333h4v5.333c0 1.471-1.196 2.667-2.667 2.667l-0.145-0.004c-1.389-0.072-2.521-1.368-2.521-2.888zM13.333 25.333v-4h5.333v4zM21.333 25.333v-4c0-1.471-1.196-2.667-2.667-2.667h-5.333c-1.471 0-2.667 1.196-2.667 2.667v4h-4v-9.508q0.509 0.136 1.049 0.167c0.086 0.005 0.186 0.008 0.287 0.008 1.59 0 3.017-0.698 3.992-1.803l0.005-0.006c0.981 1.111 2.409 1.808 4 1.809h0c1.591-0.001 3.019-0.698 3.995-1.804l0.005-0.006c0.98 1.11 2.406 1.806 3.994 1.806 0.476 0 0.937-0.063 1.376-0.18l-0.037 0.008v9.508z"></path>
</symbol>
<symbol id="icon-time" viewBox="0 0 32 32">
<path d="M16 2.667c-7.352 0-13.333 5.981-13.333 13.333s5.981 13.333 13.333 13.333 13.333-5.981 13.333-13.333-5.981-13.333-13.333-13.333zM16 26.667c-5.881 0-10.667-4.785-10.667-10.667s4.785-10.667 10.667-10.667 10.667 4.785 10.667 10.667-4.785 10.667-10.667 10.667z"></path>
<path d="M17.333 9.333h-2.667v8h8v-2.667h-5.333z"></path>
</symbol>
<symbol id="icon-Icon-terakot" viewBox="0 0 31 32">
<path d="M3.412 10.001c-0.104 1.88 0.143 3.115 0.828 4.253 0.689 1.146 1.829 2.206 3.554 3.722h-0.001c4.753 3.771 5.828 4.827 6.719 6.173l0.014 0.019 0.006 0.023c0.402 1.362 0.448 3.139 0.396 4.563-0.026 0.714-0.076 1.345-0.121 1.797-0.022 0.226-0.043 0.407-0.058 0.533-0.007 0.062-0.014 0.111-0.018 0.144-0.002 0.016-0.004 0.029-0.005 0.037-0.001 0.004-0.001 0.008-0.001 0.010-0 0.001-0.001 0.002-0.001 0.002v0.001l-0.058 0.416-0.241-0.372c-0-0-0.001-0.002-0.001-0.002s-0.003-0.004-0.005-0.007-0.010-0.016-0.019-0.029c-0.018-0.026-0.045-0.065-0.082-0.116-0.074-0.103-0.187-0.254-0.342-0.45-0.31-0.391-0.791-0.956-1.469-1.646-1.356-1.381-3.501-3.268-6.654-5.279l-0.007-0.004-0.007-0.006c-2.598-2.028-4.197-3.816-5.050-5.439-0.855-1.629-0.956-3.088-0.568-4.445l0.002-0.010 0.005-0.010c0.585-1.249 1.31-2.25 1.888-2.938 0.289-0.344 0.542-0.611 0.723-0.792 0.091-0.090 0.164-0.16 0.214-0.207 0.025-0.023 0.045-0.041 0.058-0.053 0.006-0.006 0.011-0.010 0.015-0.014 0.002-0.002 0.003-0.003 0.004-0.004l0.002-0.001v-0.001l0.001-0.001 0.298-0.259-0.021 0.39zM28.239 9.87v0.001l0.002 0.001c0.001 0.001 0.003 0.002 0.004 0.004 0.003 0.003 0.008 0.008 0.015 0.014 0.013 0.012 0.033 0.030 0.058 0.053 0.050 0.047 0.123 0.116 0.214 0.207 0.181 0.181 0.434 0.448 0.723 0.792 0.578 0.688 1.303 1.689 1.888 2.938l0.005 0.010 0.003 0.010c0.388 1.357 0.287 2.816-0.569 4.445-0.853 1.624-2.453 3.411-5.050 5.439l-0.007 0.006-0.007 0.004c-3.152 2.011-5.298 3.898-6.654 5.279-0.678 0.691-1.158 1.256-1.469 1.646-0.155 0.195-0.268 0.347-0.342 0.45-0.037 0.051-0.064 0.090-0.081 0.116-0.009 0.013-0.015 0.023-0.019 0.029-0.002 0.003-0.004 0.005-0.005 0.007s-0.001 0.002-0.001 0.002l-0.241 0.372-0.057-0.416-0.001-0.001v-0.001c-0-0.001-0-0.002-0.001-0.002-0-0.002-0.001-0.006-0.001-0.010-0.001-0.008-0.003-0.021-0.005-0.037-0.004-0.033-0.010-0.082-0.018-0.144-0.015-0.125-0.035-0.307-0.058-0.533-0.044-0.452-0.095-1.082-0.121-1.797-0.052-1.424-0.006-3.201 0.396-4.563l0.007-0.023 0.014-0.019c0.891-1.347 1.965-2.403 6.719-6.173h-0.001c1.725-1.516 2.864-2.576 3.554-3.722 0.684-1.138 0.932-2.374 0.828-4.253l-0.021-0.39 0.298 0.259zM14.817 13.573l-4.191-3.759c-0.104-0.093-0.273-0.148-0.456-0.148s-0.353 0.055-0.456 0.148c-0.094 0.084-0.149 0.211-0.094 0.407 0.058 0.21 0.243 0.5 0.655 0.87 1.123 1.007 1.123 1.007 2.807 2.517 0.868 0.779 1.302 1.688 1.518 2.399 0.108 0.356 0.163 0.664 0.19 0.884 0.014 0.11 0.020 0.198 0.024 0.259 0.002 0.030 0.003 0.055 0.003 0.071 0 0.008 0.001 0.015 0.001 0.019v5.474l-0.277-0.332c-0.833-0.996-2.786-2.748-4.616-4.388-0.912-0.817-1.79-1.606-2.476-2.252-0.343-0.323-0.639-0.613-0.868-0.854-0.216-0.227-0.381-0.423-0.466-0.567h-0.001c-0.863-1.161-1.155-2.298-1.101-3.351 0.054-1.049 0.453-2.003 0.953-2.805s1.107-1.456 1.586-1.911c0.24-0.227 0.45-0.405 0.599-0.526 0.075-0.061 0.135-0.107 0.176-0.138 0.021-0.016 0.037-0.028 0.048-0.036 0.004-0.003 0.007-0.005 0.010-0.007l6.431-5.243v13.267zM16.795 0.514l6.175 5.034c0.003 0.002 0.006 0.004 0.010 0.007 0.011 0.008 0.027 0.021 0.048 0.036 0.041 0.032 0.102 0.078 0.176 0.138 0.15 0.121 0.359 0.299 0.599 0.526 0.48 0.454 1.086 1.109 1.586 1.911s0.898 1.755 0.953 2.805c0.055 1.053-0.238 2.19-1.101 3.351h-0.001c-0.085 0.144-0.25 0.34-0.466 0.567-0.229 0.241-0.525 0.53-0.868 0.854-0.686 0.647-1.565 1.435-2.476 2.252-1.829 1.641-3.783 3.393-4.616 4.388l-0.277 0.332v-5.474c0-0.005 0-0.011 0.001-0.019 0-0.017 0.001-0.041 0.003-0.071 0.003-0.061 0.010-0.149 0.024-0.259 0.027-0.22 0.082-0.528 0.19-0.884 0.217-0.712 0.65-1.621 1.518-2.399 1.684-1.51 1.684-1.51 2.807-2.517 0.412-0.369 0.597-0.66 0.655-0.87 0.055-0.197-0-0.323-0.094-0.407-0.104-0.093-0.273-0.148-0.456-0.148s-0.353 0.056-0.456 0.148l-4.191 3.759v-13.267l0.256 0.208z"></path>
</symbol>
</defs>
</svg>
